<svg id="Слой_1" data-name="Слой 1" xmlns="http://www.w3.org/2000/svg" viewBox="0 0 30 30"><defs><style>.cls-1{fill:#e20613;}.cls-2{fill:#fff;}</style></defs><circle class="cls-1" cx="15" cy="15" r="15"/><path class="cls-2" d="M349.79,227.4a7.15,7.15,0,1,0,7.15,7.15,7.15,7.15,0,0,0-7.15-7.15Zm0,15.72a8.58,8.58,0,1,1,8.58-8.57A8.59,8.59,0,0,1,349.79,243.12Z" transform="translate(-334.79 -219.55)"/><path class="cls-2" d="M352.88,235.26h-3.09a.71.71,0,0,1-.71-.71V229a.72.72,0,0,1,1.43,0v4.81h2.37a.72.72,0,0,1,0,1.43Z" transform="translate(-334.79 -219.55)"/></svg>