<svg width="1496" height="804" fill="none" xmlns="http://www.w3.org/2000/svg"><path fill-rule="evenodd" clip-rule="evenodd" d="M1179.31 0l378.76 126.598-372.35-108.35C1007.49 131.84 760.45 310.316 760.45 310.316l-170.321-51.923L0 762.453l590.129-519.136 170.321 51.846 100.145-74.237 110.026-78.987L1179.31 0z" fill="#CA151C"/><path opacity=".85" fill-rule="evenodd" clip-rule="evenodd" d="M1183.62 11.286l368.71 124.002-370.59-107.149c-176.8 114.785-420.664 300-420.664 300l-168.961-52.468L6.695 785.024l580.876-527.83 173.505 53.063 104.247-74.847 104.247-77.417 214.05-146.707z" fill="#CA151C" fill-opacity=".5"/><path opacity=".85" fill-rule="evenodd" clip-rule="evenodd" d="M1182.18 27.988l375.89 119.777-373.57-99.792c-178.23 114.652-424.05 299.653-424.05 299.653l-170.321-52.407L0 803.984l592.056-528.307 168.394 52.831 208.851-152.729 212.879-147.79z" fill="#CA151C" fill-opacity=".2"/></svg>