<?xml version="1.0" encoding="utf-8"?><svg viewBox="0 0 50 50" xmlns="http://www.w3.org/2000/svg" xmlns:xlink="http://www.w3.org/1999/xlink"><style>:root>svg{display:none}:root>svg:target{display:block}</style><svg viewBox="0 0 36 26" id="burger" xmlns="http://www.w3.org/2000/svg"><path fill-rule="evenodd" clip-rule="evenodd" d="M36 1.182c0 .653-.53 1.182-1.182 1.182H1.182a1.182 1.182 0 010-2.364h33.636C35.471 0 36 .53 36 1.182zm0 23.636c0 .653-.53 1.182-1.182 1.182H1.182a1.182 1.182 0 110-2.364h33.636c.653 0 1.182.53 1.182 1.182zM24 13c0 .653-.53 1.182-1.182 1.182H1.182a1.182 1.182 0 110-2.364h21.636c.653 0 1.182.53 1.182 1.182z"/></svg><svg viewBox="0 0 15 15" id="chevron" xmlns="http://www.w3.org/2000/svg"><path fill-rule="evenodd" clip-rule="evenodd" d="M10.32.267l1.36 1.466L5.47 7.5l6.21 5.767-1.36 1.466L2.53 7.5 10.32.267z"/></svg><svg viewBox="0 0 26 26" id="close" xmlns="http://www.w3.org/2000/svg"><path fill-rule="evenodd" clip-rule="evenodd" d="M13 11.83L24.244.585a.828.828 0 011.17 1.17L14.17 13l11.245 11.244a.828.828 0 01-1.17 1.17L13 14.17 1.756 25.416a.828.828 0 01-1.17-1.17L11.828 13 .585 1.756a.828.828 0 111.17-1.17L13 11.828z"/></svg><svg viewBox="0 0 26 26" id="instagram" xmlns="http://www.w3.org/2000/svg"><path fill-rule="evenodd" clip-rule="evenodd" d="M12.454 2.85h1.174c3.494 0 3.908.014 5.287.076 1.276.059 1.968.272 2.43.45.61.238 1.045.521 1.503.98.458.457.741.893.979 1.504.179.46.392 1.153.45 2.428.063 1.38.077 1.794.077 5.286 0 3.491-.014 3.906-.077 5.285-.058 1.275-.271 1.968-.45 2.428a4.045 4.045 0 01-.98 1.503 4.044 4.044 0 01-1.503.979c-.46.18-1.153.392-2.429.45-1.38.063-1.793.077-5.287.077-3.493 0-3.907-.014-5.287-.076-1.275-.06-1.968-.272-2.429-.451a4.052 4.052 0 01-1.505-.979 4.054 4.054 0 01-.979-1.504c-.179-.46-.392-1.153-.45-2.428-.063-1.38-.075-1.794-.075-5.288s.012-3.906.075-5.285c.058-1.275.271-1.968.45-2.429a4.06 4.06 0 01.98-1.505 4.061 4.061 0 011.504-.979c.461-.18 1.154-.392 2.43-.45 1.206-.055 1.674-.072 4.112-.074v.003zm8.158 2.173a1.57 1.57 0 100 3.14 1.57 1.57 0 000-3.14zm-6.984 1.835a6.72 6.72 0 100 13.438 6.72 6.72 0 000-13.438z"/><path fill-rule="evenodd" clip-rule="evenodd" d="M13.629 9.215a4.361 4.361 0 110 8.722 4.361 4.361 0 010-8.722z"/></svg><svg viewBox="0 0 25 25" id="location" xmlns="http://www.w3.org/2000/svg"><path d="M16.97 4.651C15.74 3.551 14.25 3 12.5 3c-1.75 0-3.24.55-4.47 1.651-1.231 1.101-1.846 2.43-1.846 3.989 0 .94.526 2.51 1.579 4.712a83.362 83.362 0 003.157 6.011c1.053 1.806 1.58 2.684 1.58 2.635.163-.272.389-.643.676-1.113.287-.47.793-1.355 1.518-2.653a94.307 94.307 0 001.906-3.58 43.402 43.402 0 001.518-3.377c.465-1.163.697-2.041.697-2.635 0-1.558-.615-2.888-1.845-3.989zm-3.117 5.176c-.383.347-.841.52-1.374.52-.533 0-.991-.173-1.374-.52-.383-.346-.574-.76-.574-1.243 0-.482.191-.89.574-1.224.383-.334.84-.501 1.374-.501.533 0 .991.167 1.374.5.383.335.574.743.574 1.225 0 .483-.191.897-.574 1.243z"/></svg><svg viewBox="0 0 25 25" id="mail" xmlns="http://www.w3.org/2000/svg"><path d="M21.753 6.806a1.408 1.408 0 00-1.161-.617H5.408c-.472 0-.889.237-1.144.595l8.763 7.308 8.726-7.286z"/><path d="M4.002 8.03v10.375a1.41 1.41 0 001.406 1.406h15.184A1.41 1.41 0 0022 18.405V8.067l-8.97 7.49L4.001 8.03z"/></svg><svg viewBox="0 0 25 26" id="phone" xmlns="http://www.w3.org/2000/svg"><path d="M21.919 18.395l-.09-.27c-.212-.632-.907-1.291-1.546-1.465l-2.365-.647c-.641-.175-1.556.06-2.025.53l-.856.858a9.087 9.087 0 01-6.389-6.402l.856-.858c.47-.47.704-1.385.53-2.028l-.646-2.37c-.174-.642-.833-1.339-1.463-1.549l-.27-.09c-.63-.211-1.53.002-1.999.472L4.376 5.86c-.229.227-.375.88-.375.882a15.165 15.165 0 004.424 10.877 15.11 15.11 0 0010.823 4.434c.02 0 .69-.144.92-.372l1.28-1.283c.469-.47.68-1.37.471-2.003z"/></svg><svg viewBox="0 0 26 26" id="vk" xmlns="http://www.w3.org/2000/svg"><path d="M23.007 18.542c-.705.44-3.575.572-4.269.068-.38-.276-.73-.621-1.06-.95-.231-.23-.494-.342-.693-.591-.162-.205-.273-.446-.444-.647-.289-.338-.733-.626-1.085-.213-.529.622.084 1.843-.622 2.308-.236.156-.475.201-.77.179l-.655.03c-.385.007-.995.01-1.432-.068-.489-.088-.891-.354-1.332-.55-.838-.37-1.637-.876-2.244-1.576-1.653-1.906-3.873-4.528-4.736-6.925-.178-.492-.646-1.467-.202-1.89.604-.438 3.57-.562 4.032.116.188.275.307.679.44.99.165.39.255.756.513 1.1a6.9 6.9 0 01.575.948c.2.376.387.736.629 1.083.164.235.598.703.872.738.67.085.628-1.538.578-1.935a7.664 7.664 0 01-.047-1.174c.01-.33.04-.796-.156-1.066-.32-.44-1.031-.11-1.087-.702.118-.168.093-.317.878-.575a3.258 3.258 0 011.425-.164c.832.067 1.714-.158 2.516.11.767.259.648 1.346.623 1.998-.035.89.002 1.758 0 2.66-.001.412-.018.812.484.779.471-.032.52-.427.744-.753.313-.455.6-.916.918-1.37.429-.612.558-1.3.962-1.928.144-.225.269-.716.491-.893.169-.134.488-.077.692-.077h.485c.371.005.75.01 1.13.023.55.02 1.164-.1 1.709-.023 2.349.33-2.953 5.346-2.677 6.24.191.619 1.4 1.31 1.837 1.817.582.674 2.366 2.016.978 2.883z"/></svg><svg viewBox="0 0 50 50" id="we-have-01" xmlns="http://www.w3.org/2000/svg"><path d="M12.713 16.28a28.612 28.612 0 01.182-3.4c.73-4.79 3.497-7.313 9.473-7.725a50.555 50.555 0 0111.326.386 8.989 8.989 0 013.374.944 8.88 8.88 0 012.744 2.157 8.748 8.748 0 011.685 3.036 8.67 8.67 0 01.365 3.442 51.911 51.911 0 01-2.61 20.447 12.863 12.863 0 00-.156 4.275c0 .69-.14 1.372-.412 2.008a5.148 5.148 0 01-1.172 1.69 5.227 5.227 0 01-1.747 1.106 5.283 5.283 0 01-2.045.347H21.35a5.281 5.281 0 01-2.187-.35 5.223 5.223 0 01-1.844-1.212 5.14 5.14 0 01-1.168-1.858 5.087 5.087 0 01-.28-2.169 3.72 3.72 0 00-.478-2.197 3.79 3.79 0 00-1.663-1.537 14.453 14.453 0 01-5.413-6.15 14.224 14.224 0 01-1.163-8.065c.183-2.266 1.879-3.682 5.689-5.15l-.13-.026zm0 3.347a3.033 3.033 0 00-1.273.3 2.993 2.993 0 00-1.022.805 2.923 2.923 0 00-.602 2.449 18.093 18.093 0 001.644 6.129 8.794 8.794 0 003.537 3.928 8.967 8.967 0 005.179 1.222c4.697-.18 9.369 0 14.066 0a2.32 2.32 0 001.688-.401 2.26 2.26 0 00.921-1.453 54.894 54.894 0 001.775-18.876 5.497 5.497 0 00-1.422-3.49 5.633 5.633 0 00-3.354-1.79 30.64 30.64 0 00-13.674 0 5.24 5.24 0 00-3.023 1.604 5.117 5.117 0 00-1.361 3.11c-.51 4.045.207 8.15 2.061 11.794.34.695 0 1.75-.156 2.575-.81-.438-2.01-.695-2.349-1.34-1.044-2.11-1.748-4.403-2.61-6.695l-.025.13zM18.636 37.5c-.417 3.862.288 4.66 4.071 4.66h8.977c3.784 0 4.515-.823 4.045-4.66H18.636z"/></svg><svg viewBox="0 0 50 50" id="we-have-02" xmlns="http://www.w3.org/2000/svg"><path d="M33.654 30.107h-17.35v7.363c0 1.744-.651 2.575-2.39 2.464H11.2c-4.78-.138-4.263.83-4.942-4.18a.968.968 0 00-.462-.194C.013 35.062.013 35.062.013 29.055v-11.32c-.136-2.575.787-3.572 3.285-3.267 1.04.056 2.083.056 3.123 0a7.19 7.19 0 01.217-2.52 8.233 8.233 0 011.792-1.881h.272c9.258 0 7.44-1.246 7.63 7.03v2.769h17.377v-7.28c0-1.744.624-2.575 2.39-2.464h2.714c4.806 0 4.263-.803 4.915 4.18.163 0 .326.194.489.194C50 14.91 50 14.91 50 20.973v11.321c0 2.602-.787 3.599-3.285 3.294a23.11 23.11 0 00-3.123 0c.076.846.002 1.7-.217 2.519a8.234 8.234 0 01-1.792 1.882h-.272c-9.258-.138-7.466 1.246-7.63-7.03V30.19l-.026-.083zM12.938 13.5h-3.04v22.947h3.04V13.5zm24.057 23.002h3.014V13.555h-3.014v22.947zM33.546 23.52H16.304v2.99h17.133v-2.99h.109zM6.394 32.1V17.928H3.488V32.1h2.906zm37.28-14.172v14.145h2.932V17.928h-2.932z"/></svg><svg viewBox="0 0 50 50" id="we-have-03" xmlns="http://www.w3.org/2000/svg"><path d="M7.779 22.64H4.305a22.35 22.35 0 010-7.364 10.067 10.067 0 014.67-5.748 12.517 12.517 0 015.728-1.527 14.01 14.01 0 017.262 1.909c1.015.583 1.557 1.594 2.684 2.065.79-.628 1.602-1.37 2.504-1.953a12.244 12.244 0 017.465-1.998c1.93.01 3.825.512 5.504 1.46a10.138 10.138 0 013.014 2.575 10.086 10.086 0 011.79 3.53 15.98 15.98 0 01.18 7.455 29.622 29.622 0 01-2.075 5.343 24.385 24.385 0 01-3.631 5.051 40.597 40.597 0 01-12.27 8.6l-1.42.673a2.264 2.264 0 01-1.985.112 45.574 45.574 0 01-7.376-3.951 39.868 39.868 0 01-7.172-6.174c-.812-.92-1.489-1.954-2.39-3.166 1.533-.18 2.774 0 4.037-.112a22.99 22.99 0 007.42 6.735 26.62 26.62 0 005.075 2.986 2.944 2.944 0 002.57 0 32.396 32.396 0 005.482-3.21 28.076 28.076 0 005.435-4.49 26.699 26.699 0 004.511-7.32 14.154 14.154 0 00.947-5.837 8.706 8.706 0 00-1.106-3.474 8.746 8.746 0 00-2.435-2.723 8.623 8.623 0 00-4.691-1.257 11.633 11.633 0 00-7.465 3.884c-.249.292-.406.674-.654.943a1.67 1.67 0 01-1.939.416 1.67 1.67 0 01-.565-.416 4.788 4.788 0 01-.744-.898 8.488 8.488 0 00-3.084-2.867 8.533 8.533 0 00-4.089-1.04 11.188 11.188 0 00-4.06.72A6.54 6.54 0 009.2 13.204a6.503 6.503 0 00-1.354 2.407 20.517 20.517 0 00-.157 6.736l.09.292z"/><path d="M32.264 26c-.695 1.044-3.026 5.52-3.9 7.178-.381.727-.605 1.159-1.435 1.204-.829.045-1.322-.477-1.613-1.34-.718-2.068-1.57-4.09-2.242-6.134-.38-1.068-.695-2.158-1.12-3.521a908.689 908.689 0 00-3.25 7.27 1.67 1.67 0 01-.609.626 1.64 1.64 0 01-1.674 0 1.67 1.67 0 01-.609-.627c-.537-1.363-2.24-5.247-2.667-5.974-.582.908-1.322 2.68-1.86 2.885a38.25 38.25 0 01-4.326 0c-.627 0-1.882 0-1.882-1.25s.448-1.59.65-1.704c.201-.113 2.69 0 3.989 0 .762-1.181 1.367-2.476 2.241-3.816.404-.682.628-1.159 1.502-1.136.874.023 1.12.409 1.48 1.181.627 1.454 2.106 4.544 2.24 5.112.628-1.068 2.735-5.612 3.407-7.18.09-.344.302-.643.596-.84.293-.197.648-.278.996-.227.851 0 1.143.454 1.412 1.25.874 2.567 1.882 5.088 2.846 7.633.224.636.404 1.295.717 2.271a56.787 56.787 0 012.757-5.043c.404-.409.964-.25 1.591-.272.628-.023.987 0 1.121 0 .218-.33.51-.602.854-.792.343-.19.727-.292 1.118-.299.48-.031.959.072 1.384.298.426.226.782.566 1.03.983a2.684 2.684 0 01-.01 2.762 2.642 2.642 0 01-1.038.974 2.592 2.592 0 01-2.718-.198 2.652 2.652 0 01-.889-1.116l-.09-.159z"/></svg><svg viewBox="0 0 50 50" id="we-have-04" xmlns="http://www.w3.org/2000/svg"><path d="M24.367 2c2.879 0 5.757.171 8.61 0a7.727 7.727 0 015.273 2.181 7.364 7.364 0 012.235 5.148A57.389 57.389 0 0138.758 18c-.2.513-.425 1.27 0 1.71a33.503 33.503 0 012.828 4.446 19.127 19.127 0 011.402 7.89 15.456 15.456 0 01-2.328 7.818 16.068 16.068 0 01-6.307 6.547 4.49 4.49 0 01-2.352.586H16.784a6.46 6.46 0 01-2.753-.928 16.684 16.684 0 01-2.353-1.93 14.239 14.239 0 01-2.277-2.614 19.324 19.324 0 01-2.753-5.912 17.786 17.786 0 01-.626-5.643 17.07 17.07 0 011.201-5.13 16.478 16.478 0 011.978-3.689c.45-.66.95-1.294 1.426-1.954a8.634 8.634 0 00-.6-1.979 32.08 32.08 0 01-1.602-6.083 7.416 7.416 0 01.829-5.456 7.725 7.725 0 014.402-3.46 5.43 5.43 0 011.676-.171L24.367 2zm-.2 41.53c1.817-.11 3.64-.11 5.456 0a6.065 6.065 0 002.74-.38 5.934 5.934 0 002.266-1.55 14.449 14.449 0 004.309-7.032 14.179 14.179 0 00-.28-8.188 14.913 14.913 0 00-3.189-5.128 15.34 15.34 0 00-4.995-3.495 14.765 14.765 0 00-8.309-.978 17.83 17.83 0 00-4.805 1.49 14.858 14.858 0 00-6.107 5.79 17.375 17.375 0 00-1.802 6.816c-.375 3.347 2.828 8.819 4.13 10.065a8.984 8.984 0 002.978 2.443 16.2 16.2 0 004.505.195l3.103-.049zm.2-38.183h-8.584c-2.503 0-4.805 2.638-4.054 4.666.235.8.41 1.617.525 2.443.3 1.27.75 2.443 1.101 3.737.175.635.376.342.701.147a18.212 18.212 0 019.76-3.2c3.717-.29 7.413.762 10.387 2.956 1.352.952 1.151-.196 1.227-.514.575-2.027 1.05-4.055 1.526-6.107a1.86 1.86 0 000-.83A4.694 4.694 0 0035.33 6.41a4.876 4.876 0 00-2.628-.966h-8.335v-.097z"/><path d="M23 31.265v-1.652a4.936 4.936 0 011.581-3.28A5.043 5.043 0 0128 25c1.269 0 2.49.476 3.419 1.332A4.936 4.936 0 0133 29.612v3.57a5.21 5.21 0 01-1.043 2.774 5.298 5.298 0 01-2.395 1.775 4.6 4.6 0 01-2.59.15 4.565 4.565 0 01-2.253-1.275 4.793 4.793 0 01-1.326-1.789 4.742 4.742 0 01-.369-2.187c.024-.454.024-.91 0-1.365H23zm7.264 0V29.35a2.388 2.388 0 00-.756-1.311 2.434 2.434 0 00-1.4-.604 2.268 2.268 0 00-1.477.494c-.417.334-.7.804-.798 1.326a38.077 38.077 0 000 4.07c.137.528.452.993.892 1.32.44.326.98.494 1.53.477a2.434 2.434 0 001.39-.62c.384-.35.644-.813.74-1.32v-1.916h-.121zm-9.292.134v4.97c.03.204.011.411-.055.607a1.409 1.409 0 01-.329.533c-.15.154-.336.278-.544.362a1.758 1.758 0 01-1.325 0 1.604 1.604 0 01-.544-.362 1.407 1.407 0 01-.329-.533 1.3 1.3 0 01-.055-.606v-7.93c0-.944-.194-.92-.94-.372a1.971 1.971 0 01-1.522 0c-.498-.174-1.162-.547-1.3-.97a1.48 1.48 0 01.053-.775c.087-.25.24-.48.444-.666a17.553 17.553 0 013.708-1.516c1.77-.473 2.766.248 2.766 1.988v5.12l-.028.149z"/></svg><svg viewBox="0 0 50 50" id="we-have-05" xmlns="http://www.w3.org/2000/svg"><path d="M20.665 3.004A10.501 10.501 0 0130.76 15.74a10.499 10.499 0 01-20.756-2.48A10.362 10.362 0 0120.665 3.003zm-.27 3.166a7.335 7.335 0 00-7.1 8.822 7.333 7.333 0 0014.514-1.516 7.522 7.522 0 00-7.414-7.306zm9.266 25.544l-14.303.466H9.095c-2.088 0-3.273 1.343-2.511 3.015a9.635 9.635 0 003.95 4.989 34.677 34.677 0 0010.692 2.466 5.108 5.108 0 012.872.711 4.897 4.897 0 011.952 2.168c-7.363 1.068-14.106.602-20.03-4.386a8.487 8.487 0 01-2.571-3.736 8.267 8.267 0 01-.25-4.487 4.26 4.26 0 011.439-2.807A4.504 4.504 0 017.656 29h19.748c.875 0 1.721.932 2.596 1.425 0 .412-.198.823-.282 1.234l-.057.055z"/><path d="M35.4 33.086h4.675a4.836 4.836 0 013.389.6 5.097 5.097 0 012.2 2.73 6.465 6.465 0 01.05 3.957 6.264 6.264 0 01-2.253 3.2A14.255 14.255 0 0135.52 46c-2.817 0-5.574-.843-7.938-2.426a6.377 6.377 0 01-2.08-2.676 6.601 6.601 0 01-.445-3.4 4.788 4.788 0 011.351-3.11 4.499 4.499 0 013.028-1.358H35.4v.056zm.27 3.218a41.976 41.976 0 00-4.944 0 2.116 2.116 0 00-1.35.232 2.216 2.216 0 00-.95 1.018 2.314 2.314 0 00-.172 1.403c.09.475.326.907.672 1.232 2.338 3.301 10.988 3.218 13.164 0a3.29 3.29 0 00.35-2.775c-.215-.583-1.344-.999-2.096-1.082a43.704 43.704 0 00-4.675 0v-.028zm-6.654-11.947a6.505 6.505 0 014.158-5.923 6.486 6.486 0 017.051 1.6 6.502 6.502 0 01-4.939 10.962 6.18 6.18 0 01-4.595-1.938 6.192 6.192 0 01-1.675-4.701zm6.381 3.375a3.063 3.063 0 003.26-3.208 2.792 2.792 0 00-2.786-3.18 2.922 2.922 0 00-3.169 1.743c-.17.401-.249.835-.23 1.27a3.045 3.045 0 001.81 3.125c.396.172.824.257 1.255.25h-.14z"/></svg><svg viewBox="0 0 50 50" id="we-have-06" xmlns="http://www.w3.org/2000/svg"><path d="M24.274 20.142a7.343 7.343 0 00-.234-3.477 54.435 54.435 0 00-2.533-5.292c-.974-1.588-.467-2.42.857-3.062a4.005 4.005 0 012.012-.284c.684.08 1.334.334 1.884.737 2.962 2.646 3.897 11.34 2.182 15.99-.7 1.852-1.246 3.78-1.792 5.632a5.177 5.177 0 000 2.986c.429 1.323 3.04 4.612 3.273 5.935 0 .302.39.87-.584 1.928a4.819 4.819 0 01-2.61.765 4.818 4.818 0 01-2.611-.765 13.897 13.897 0 01-2.805-8.165 19.307 19.307 0 012.025-9.526c.493-1.082.821-2.228.974-3.402h-.038zm-15.629 0a6.649 6.649 0 00-.26-3.477 45.27 45.27 0 00-2.854-5.292c-1.037-1.588-.475-2.42.995-3.062a4.891 4.891 0 012.232-.284c.76.08 1.482.334 2.092.737 3.286 2.646 4.324 11.34 2.421 15.99-.778 1.852-1.383 3.78-1.989 5.632a4.688 4.688 0 000 2.986c.476 1.323 3.373 4.612 3.633 5.935 0 .302.432.87-.649 1.928A5.784 5.784 0 0111.37 42a5.783 5.783 0 01-2.897-.765c-1.983-2.375-3.07-5.227-3.114-8.165-.168-3.29.604-6.563 2.248-9.526a11.043 11.043 0 001.08-3.402h-.042zm31.265 0a8.223 8.223 0 00-.208-3.477 57.654 57.654 0 00-2.251-5.292c-.866-1.588-.416-2.42.762-3.062A3.203 3.203 0 0140 8.027c.608.08 1.186.334 1.675.737 2.632 2.646 3.463 11.34 1.94 15.99-.59 1.852-1.109 3.78-1.593 5.632a5.798 5.798 0 000 2.986c.38 1.323 2.7 4.612 2.908 5.935 0 .302.347.87-.519 1.928a3.945 3.945 0 01-2.32.765 3.944 3.944 0 01-2.32-.765c-1.587-2.374-2.458-5.227-2.494-8.165a21.357 21.357 0 011.8-9.526c.439-1.082.73-2.228.866-3.402h-.034z"/></svg><svg viewBox="0 0 50 50" id="we-have-07" xmlns="http://www.w3.org/2000/svg"><path d="M10.319 18.657l6.664 8.897a8.981 8.981 0 0110.363-5.931 5.65 5.65 0 00.311-1.13c.282-6.355 3.728-10.394 9.29-10.817a11.548 11.548 0 0111.804 9.376 13.135 13.135 0 01-6.184 13.84 8.47 8.47 0 00-2.485 2.485 18.837 18.837 0 01-15.616 9.405c-11.295.876-13.583-.536-18.496-10.817A40.562 40.562 0 011 14.703c.254-5.903 3.784-9.744 8.895-9.66a6.805 6.805 0 017.54 6.073c.367 4.265-1.356 6.326-7.116 7.541zm9.036 22.934c8.472-.311 14.345-1.751 17.96-8.276a10.393 10.393 0 013.22-3.248 10.307 10.307 0 004.771-6.75 8.304 8.304 0 00-3.642-8.896 6.579 6.579 0 00-7.71 0 6.863 6.863 0 00-2.428 8.473c.593 2.005-.508 2.824-2.485 2.541-6.693-.903-7.088-.65-9.29 5.847-.622 1.864-1.836 2.231-3.107.875a85.498 85.498 0 01-7.285-8.699 10.621 10.621 0 01-1.582-5.281 3.022 3.022 0 013.332-3.587 3.613 3.613 0 002.824-2.344 4.181 4.181 0 00-6.467-3.14 4.18 4.18 0 00-1.694 2.264 13.841 13.841 0 00-.847 7.174A166.016 166.016 0 0010.94 35.49a8.275 8.275 0 008.472 6.044l-.057.057z"/></svg><svg viewBox="0 0 50 50" id="we-have-08" xmlns="http://www.w3.org/2000/svg"><path d="M24.41 4h14.247c.84.195 1.636.551 2.343 1.05a18.44 18.44 0 00-1.358 2.07 7.933 7.933 0 00-.959 2.449 3569.9 3569.9 0 00-2.29 23.702c-.213 2.422-.346 4.87-.639 7.291a5.428 5.428 0 01-.465 2.257 5.379 5.379 0 01-1.357 1.853 5.274 5.274 0 01-4.276 1.271H19.271a5.276 5.276 0 01-2.094-.296 5.316 5.316 0 01-1.814-1.096 5.379 5.379 0 01-1.25-1.722 5.428 5.428 0 01-.488-2.078c-1.065-10.143-2.103-20.286-3.195-30.429-.16-1.318.16-3.013-1.864-3.497-.32 0-.72-1.372-.506-1.749a2.67 2.67 0 011.837-.995H24.41V4zM14.105 14.573c.665 6 1.278 11.784 1.917 17.568h17.229c.56-5.945 1.118-11.703 1.678-17.568H14.104zm2.343 20.985a21.03 21.03 0 00.506 4.87c.236.562.6 1.06 1.063 1.452.463.393 1.011.67 1.6.808 3.547.22 7.104.22 10.651 0a2.932 2.932 0 002.184-1.668c.394-1.77.635-3.57.72-5.381l-16.724-.08zM35.514 7.282H13.625c0 1.372.16 2.69.213 3.848h21.623c0-1.319.133-2.422.187-3.848h-.134z"/></svg><svg viewBox="0 0 50 50" id="we-have-09" xmlns="http://www.w3.org/2000/svg"><path d="M25.113 5.035h13.283a5.947 5.947 0 016.242 3.89c.302.832.414 1.72.33 2.601v26.895a5.958 5.958 0 01-3.914 6.23 5.947 5.947 0 01-2.601.317h-26.85a5.975 5.975 0 01-6.23-3.895 5.986 5.986 0 01-.34-2.596V11.583a5.958 5.958 0 013.913-6.23 5.947 5.947 0 012.601-.318h13.566zm-4.428 24.242h20.842v-8.466H20.685v8.466zM41.64 17.17a23.891 23.891 0 000-5.644c-.31-1.157-1.635-2.822-2.594-2.822-6.036-.254-12.099 0-18.19 0v8.777l20.784-.31zM20.685 41.695h13.17c8.095 0 8.123 0 7.728-8.212 0 0-.141-.31-.254-.536H20.685v8.748zM8.473 20.698v8.466h8.461v-8.466h-8.46zm0-3.584h8.8V8.648c-8.461-.96-9.223-.339-8.8 8.466zm8.461 24.355v-8.467h-8.46c-1.213 8.467 0 9.51 8.46 8.467z"/></svg><svg viewBox="0 0 50 50" id="we-have-10" xmlns="http://www.w3.org/2000/svg"><path d="M47.946 24.924c-2.703 3.747-4.838 4.02-8.54 1.094a11.485 11.485 0 00-4.028-2.407A31.239 31.239 0 0129 24.841a132.259 132.259 0 01-15.81-.956 17.706 17.706 0 01-11-7.768c-.352-.493 0-1.45-.19-2.188.81 0 1.595 0 2.378.164 0 0 .27.219.352.355 4.648 6.291 11.243 7.74 18.486 7.522h6.135c1.379 0 3.244.192 3.244-1.668 0-1.86-1.92-1.778-3.379-1.806h-7.594c-1.163 0-2.703 0-2.433-1.531 0-.547 1.487-1.34 2.324-1.368 3.013-.26 6.042-.26 9.055 0a9.442 9.442 0 014.378 2.16c2.703 2.134 5.027 4.569 7.622 6.757a1.791 1.791 0 001.837-.22 1.849 1.849 0 000-1.859c-3.027-3.145-6-6.346-9.297-9.163a8.033 8.033 0 00-4.622-1.149H15.27a8.685 8.685 0 01-3.973-1.313 44.49 44.49 0 01-5.919-4.403C4.811 5.942 4.784 4.82 4.486 4H7.19s.27.191.379.3c4.378 4.596 9.783 5.225 15.837 5.088 14.325-.3 11.298-1.094 21.243 8.835 1.136 1.121 2.244 2.325 3.352 3.474v3.473l-.054-.246zm-23.18 20.957c-8.256.637-15.053-2.652-21.712-6.472-1.293-.742-1.513-1.936 0-2.652 6.797-3.448 13.539-7.056 21.712-6.737a33.748 33.748 0 0115.024 3.713c1.954 1.035 4.046 1.83 6.027 2.812.282.128.534.313.738.541.204.229.355.496.445.785-.003.3-.085.593-.24.853a1.77 1.77 0 01-.64.632c-6.797 3.263-13.347 7.4-21.272 6.525h-.082zM36.598 35.67c-7.457-3.66-18.987-3.474-24.05 0 .303.717.578 1.353.88 1.99-.743 0-1.486.185-2.229.185-.742 0-2.283 0-3.412-.159 9.687 7.56 26.885 6.34 33.434-.265-1.898.265-3.33.53-4.788.637a6.325 6.325 0 01-1.76-.425c.302-.477.577-.981.907-1.406a3.88 3.88 0 011.018-.61v.053z"/><path d="M23.961 41c-1.948-.453-3.922-.87-5.896-1.497-.416 0-.727-1.079-1.065-1.636.494-.313 1.091-.975 1.532-.835a15.718 15.718 0 0010.858 0c.467-.174 1.064.417 1.61.661-.39.661-.701 1.706-1.195 1.845-1.87.627-3.792.975-5.844 1.427V41z"/></svg></svg>