<?xml version="1.0" encoding="UTF-8" standalone="no"?>
<!-- Generator: Adobe Illustrator 19.0.0, SVG Export Plug-In . SVG Version: 6.00 Build 0)  -->

<svg
   xmlns:dc="http://purl.org/dc/elements/1.1/"
   xmlns:cc="http://creativecommons.org/ns#"
   xmlns:rdf="http://www.w3.org/1999/02/22-rdf-syntax-ns#"
   xmlns:svg="http://www.w3.org/2000/svg"
   xmlns="http://www.w3.org/2000/svg"
   xmlns:sodipodi="http://sodipodi.sourceforge.net/DTD/sodipodi-0.dtd"
   xmlns:inkscape="http://www.inkscape.org/namespaces/inkscape"
   version="1.1"
   id="Capa_1"
   x="0px"
   y="0px"
   viewBox="0 0 489.2 489.2"
   style="enable-background:new 0 0 489.2 489.2;"
   xml:space="preserve"
   sodipodi:docname="calendar.svg"
   inkscape:version="0.92.5 (2060ec1f9f, 2020-04-08)"><metadata
   id="metadata43"><rdf:RDF><cc:Work
       rdf:about=""><dc:format>image/svg+xml</dc:format><dc:type
         rdf:resource="http://purl.org/dc/dcmitype/StillImage" /><dc:title /></cc:Work></rdf:RDF></metadata><defs
   id="defs41" /><sodipodi:namedview
   pagecolor="#000000"
   bordercolor="#666666"
   borderopacity="1"
   objecttolerance="10"
   gridtolerance="10"
   guidetolerance="10"
   inkscape:pageopacity="0"
   inkscape:pageshadow="2"
   inkscape:window-width="1600"
   inkscape:window-height="839"
   id="namedview39"
   showgrid="false"
   inkscape:zoom="0.68224528"
   inkscape:cx="99.401551"
   inkscape:cy="273.40028"
   inkscape:window-x="0"
   inkscape:window-y="30"
   inkscape:window-maximized="1"
   inkscape:current-layer="Capa_1" />
<ellipse
   style="fill:#ca151c;fill-opacity:1;stroke:none;stroke-width:0.71118957;stroke-miterlimit:4;stroke-dasharray:none"
   id="path24"
   cx="243.31425"
   cy="243.22827"
   rx="213.80022"
   ry="213.95" /><g
   id="g6"
   style="fill:#ffffff"
   transform="matrix(0.43592628,0,0,0.43592628,137.97243,137.97243)">
	<g
   id="g4"
   style="fill:#ffffff">
		<path
   d="m 177.8,238.1 c 0,4.5 -3.6,8.1 -8.1,8.1 h -30.4 c -4.5,0 -8.1,-3.6 -8.1,-8.1 v -30.4 c 0,-4.5 3.6,-8.1 8.1,-8.1 h 30.4 c 4.5,0 8.1,3.6 8.1,8.1 z m 63.5,-30.3 c 0,-4.5 -3.6,-8.1 -8.1,-8.1 h -30.4 c -4.5,0 -8.1,3.6 -8.1,8.1 v 30.4 c 0,4.5 3.6,8.1 8.1,8.1 h 30.4 c 4.5,0 8.1,-3.6 8.1,-8.1 z m 63.5,0 c 0,-4.5 -3.6,-8.1 -8.1,-8.1 h -30.4 c -4.5,0 -8.1,3.6 -8.1,8.1 v 30.4 c 0,4.5 3.6,8.1 8.1,8.1 h 30.4 c 4.5,0 8.1,-3.6 8.1,-8.1 z m -127,61.8 c 0,-4.5 -3.6,-8.1 -8.1,-8.1 h -30.4 c -4.5,0 -8.1,3.6 -8.1,8.1 V 300 c 0,4.5 3.6,8.1 8.1,8.1 h 30.4 c 4.5,0 8.1,-3.6 8.1,-8.1 z m 63.5,0 c 0,-4.5 -3.6,-8.1 -8.1,-8.1 h -30.4 c -4.5,0 -8.1,3.6 -8.1,8.1 V 300 c 0,4.5 3.6,8.1 8.1,8.1 h 30.4 c 4.5,0 8.1,-3.6 8.1,-8.1 z m 55.4,-8.1 h -30.4 c -4.5,0 -8.1,3.6 -8.1,8.1 V 300 c 0,4.5 3.6,8.1 8.1,8.1 h 30.4 c 4.5,0 8.1,-3.6 8.1,-8.1 v -30.4 c 0,-4.5 -3.6,-8.1 -8.1,-8.1 z M 106.1,323.3 H 75.8 c -4.5,0 -8.1,3.6 -8.1,8.1 v 30.4 c 0,4.5 3.6,8.1 8.1,8.1 h 30.4 c 4.5,0 8.1,-3.6 8.1,-8.1 v -30.4 c 0,-4.5 -3.7,-8.1 -8.2,-8.1 z m 8.2,-53.7 c 0,-4.5 -3.6,-8.1 -8.1,-8.1 H 75.8 c -4.5,0 -8.1,3.6 -8.1,8.1 V 300 c 0,4.5 3.6,8.1 8.1,8.1 h 30.4 c 4.5,0 8.1,-3.6 8.1,-8.1 z m 118.9,53.7 h -30.4 c -4.5,0 -8.1,3.6 -8.1,8.1 v 30.4 c 0,4.5 3.6,8.1 8.1,8.1 h 30.4 c 4.5,0 8.1,-3.6 8.1,-8.1 v -30.4 c 0,-4.5 -3.6,-8.1 -8.1,-8.1 z m -63.5,0 h -30.4 c -4.5,0 -8.1,3.6 -8.1,8.1 v 30.4 c 0,4.5 3.6,8.1 8.1,8.1 h 30.4 c 4.5,0 8.1,-3.6 8.1,-8.1 v -30.4 c 0,-4.5 -3.6,-8.1 -8.1,-8.1 z m 190.5,-77 c 4.5,0 8.1,-3.6 8.1,-8.1 v -30.4 c 0,-4.5 -3.6,-8.1 -8.1,-8.1 h -30.4 c -4.5,0 -8.1,3.6 -8.1,8.1 v 30.4 c 0,4.5 3.6,8.1 8.1,8.1 z M 47.7,435.9 h 230.7 c -3.7,-11.6 -5.8,-24 -5.9,-36.8 H 47.7 c -6,0 -10.8,-4.9 -10.8,-10.8 V 171 h 361.7 v 101.1 c 12.8,0.1 25.2,2 36.8,5.7 V 94.9 C 435.4,68.6 414,47.2 387.7,47.2 H 334.3 V 17.8 c 0,-9.6 -7.8,-17.4 -17.4,-17.4 h -27.1 c -9.6,0 -17.4,7.8 -17.4,17.4 V 47.3 H 163 V 17.8 C 163,8.2 155.2,0.4 145.6,0.4 h -27.1 c -9.6,0 -17.4,7.8 -17.4,17.4 V 47.3 H 47.7 C 21.4,47.3 0,68.7 0,95 v 293.3 c 0,26.2 21.4,47.6 47.7,47.6 z m 441.5,-38.2 c 0,50.3 -40.8,91.1 -91.1,91.1 -50.3,0 -91.1,-40.8 -91.1,-91.1 0,-50.3 40.8,-91.1 91.1,-91.1 50.3,0 91.1,40.8 91.1,91.1 z m -45.1,-23.6 c 0,-2.9 -1.1,-5.7 -3.2,-7.7 -4.3,-4.3 -11.2,-4.3 -15.5,0 L 385.8,406 370.6,390.8 c -4.3,-4.3 -11.2,-4.3 -15.5,0 -2.1,2.1 -3.2,4.8 -3.2,7.7 0,2.9 1.1,5.7 3.2,7.7 l 22.9,22.9 c 4.3,4.3 11.2,4.3 15.5,0 l 47.3,-47.3 c 2.2,-2 3.3,-4.8 3.3,-7.7 z"
   id="path2"
   inkscape:connector-curvature="0"
   style="fill:#ffffff" />
	</g>
</g>















</svg>