<svg width="20" height="20" fill="none" xmlns="http://www.w3.org/2000/svg"><g clip-path="url(#clip0_417_604)"><path d="M14.257 1.738C13.085.58 11.666 0 9.999 0 8.333 0 6.914.58 5.742 1.738 4.57 2.897 3.984 4.296 3.984 5.937c0 .99.502 2.643 1.504 4.96a91.342 91.342 0 003.008 6.328c1.002 1.9 1.503 2.825 1.503 2.773.157-.287.371-.677.645-1.172.273-.495.755-1.425 1.445-2.793a103.04 103.04 0 001.816-3.769A48.236 48.236 0 0015.35 8.71c.443-1.224.664-2.148.664-2.773 0-1.64-.585-3.04-1.757-4.199zm-2.969 5.449c-.364.364-.8.547-1.308.547s-.944-.183-1.309-.547a1.785 1.785 0 01-.546-1.309c0-.507.182-.937.546-1.289a1.822 1.822 0 011.309-.527c.508 0 .944.176 1.308.527.365.352.547.782.547 1.29 0 .507-.182.943-.547 1.308z" fill="#CA151C"/></g><defs><clipPath id="clip0_417_604"><path fill="#fff" d="M0 0h20v20H0z"/></clipPath></defs></svg>