<svg width="130" height="70" fill="none" xmlns="http://www.w3.org/2000/svg"><path d="M0 36.647c4.87.793 9.75 1.509 14.64 2.148v9.95l-3.96-.177V44.25l-4.713-.417v6.257l3.648.125v5.83l-3.648.074v7.3l4.713-.396v-5.36l3.96-.116v10.43C9.743 68.547 4.863 69.22 0 70v-6.028l1.885-.198V43.489L0 43.29v-6.644zm38.903 4.474c4.914.313 9.825.546 14.733.699v8.093l-3.978-.052v-3.4l-4.713-.146v4.797l3.676.063v4.589h-3.676v5.632l4.713-.073v-4.256h3.988v8.5a620.12 620.12 0 00-14.743.49v-4.505l1.942-.052V46.2l-1.942-.083V41.12zm18.617.824c3.274.063 6.542.083 9.803.063a5.93 5.93 0 012.565.521 5.486 5.486 0 011.872 1.404c.53.607.938 1.33 1.2 2.121.272.8.41 1.648.406 2.503a9.951 9.951 0 01-.198 2.086 6.055 6.055 0 01-.585 1.606 5.122 5.122 0 01-.942 1.241 7.11 7.11 0 01-1.282.97c.45.313.828.738 1.103 1.241.351.664.594 1.391.716 2.149.255 1.23.377 1.835.622 3.066h1.537v4.61l-5.383-.073c-.245-1.857-.487-3.717-.725-5.58a9.321 9.321 0 00-.34-1.71 3.564 3.564 0 00-.603-1.179 2.367 2.367 0 00-.943-.678 3.5 3.5 0 00-1.291-.219h-1.574v5.1h1.706v4.234c-2.564 0-5.125.021-7.683.063v-4.266h1.886V46.242H57.5v-4.276l.02-.021zm5.976 4.318v5.684h2.442c.423.006.844-.05 1.254-.167.344-.093.665-.267.942-.511.264-.234.475-.535.613-.876.146-.397.216-.823.207-1.252a2.95 2.95 0 00-.175-1.135 2.718 2.718 0 00-.588-.95 3.04 3.04 0 00-2.263-.752l-2.432-.041zM78.108 41.8a436.87 436.87 0 0014.733-.773V49.6c-1.593 0-2.385.073-3.978.105V46.21c-1.584.062-3.167.125-4.713.166v4.788l3.676-.063v4.693H84.15v5.611l4.713.105v-4.38h3.978v9a545.693 545.693 0 00-14.743-.532V61.29h1.942V46.504h-1.942v-4.746l.01.042zm28.024 5.725a3.912 3.912 0 00-.301-1.158 2.875 2.875 0 00-.613-.918 2.502 2.502 0 00-.839-.584 2.237 2.237 0 00-.943-.156 2.654 2.654 0 00-.867.198c-.26.1-.497.26-.697.47-.207.218-.37.48-.481.771a3.118 3.118 0 00-.17 1.043c-.02.426.061.85.236 1.23.15.293.36.543.612.73.254.191.53.342.821.45.297.1.59.218.876.354 1.339.605 2.008.918 3.356 1.543.479.246.919.577 1.301.98.426.448.782.97 1.056 1.544.312.66.547 1.36.697 2.086.178.89.264 1.8.255 2.712a12.785 12.785 0 01-.49 3.681 8.043 8.043 0 01-1.386 2.764 5.323 5.323 0 01-2.13 1.658 5.561 5.561 0 01-2.753.407 5.974 5.974 0 01-2.008-.5 6.707 6.707 0 01-1.725-1.096 7.852 7.852 0 01-1.367-1.595 8.151 8.151 0 01-.942-2.024l-1.254-.052v-5.079h4.411v1.043c0 .49.06.978.18 1.45.11.418.289.81.527 1.158.252.344.575.616.943.792.392.21.819.323 1.254.334.306.04.616 0 .905-.116.29-.115.551-.304.763-.552a3.156 3.156 0 00.575-2.086 2.714 2.714 0 00-.207-1.136 2.7 2.7 0 00-.509-.782 3.614 3.614 0 00-.707-.532 17.835 17.835 0 00-.773-.397 92.651 92.651 0 00-2.828-1.303 6.635 6.635 0 01-1.536-.96 6.265 6.265 0 01-1.301-1.523 8.318 8.318 0 01-.943-2.138 10.416 10.416 0 01-.34-2.784 10.549 10.549 0 01.49-3.296 7.785 7.785 0 011.368-2.513 6.847 6.847 0 012.083-1.7 7.424 7.424 0 012.649-.782 5.507 5.507 0 012.093.166 5.281 5.281 0 011.725.855c.5.367.938.83 1.291 1.367.343.52.616 1.093.811 1.7l1.216-.105v5.59l-4.403.188v-1.585l.019.188zm11.435 15.341l1.885.146V43.53l-2.234.209v3.828l-3.959.218v-8.729A436.106 436.106 0 00130 36.647v10.148l-3.968.25v-4.172l-2.536.261v20.202l1.942.177v5.767a223.72 223.72 0 00-7.881-1.043v-5.37h.01z" fill="#fff"/><path d="M114.38 28.116a.967.967 0 01-.744-.188l-12.255-5.653a.793.793 0 01-.198-.208L93.114 8.894a1.535 1.535 0 00-.349-.365L79.775.29a1.735 1.735 0 00-1.248-.265 1.842 1.842 0 00-1.117.672l-.057.073-10.19 12.849a1.088 1.088 0 01-.47.354.985.985 0 01-.567.042l-7.767-1.679a1.958 1.958 0 00-1.005.037c-.327.1-.63.284-.88.537L42.758 26.854a1.19 1.19 0 01-.292.208l-8.644 4.005a2.505 2.505 0 00-.847.677c-.236.29-.413.631-.52 1.002l-5.93 27.534-6.305-32.008a1.437 1.437 0 00-.437-.651 1.229 1.229 0 00-.685-.287c-3.224-.272-17.91 1.189-19.07 1.043 1.499.375 16.195 1.97 16.195 1.97l7.692 36.712 5.005-.397s6.825-29.932 7.428-31.84l9.087-3.692 10.2-11.024 4.93 5.976 6.146-3.014 10.953 3.014 3.856-7.113 8.342 4.474 6.665-4.317 3.11 4.672 13.914 6.498s14.912-1.846 16.373-2.285c-1.498.24-15.6.084-15.6.084l.056.02zm-23.933-6.988a1.365 1.365 0 01-.66.172c-.23 0-.455-.059-.66-.172l-7.419-4.172a.7.7 0 00-.594-.086.748.748 0 00-.273.152.839.839 0 00-.198.258l-3.375 6.601a.823.823 0 01-.385.373.721.721 0 01-.51.034l-9.304-2.91a.746.746 0 00-.519 0l-4.882 2.274a.704.704 0 01-.425.056.744.744 0 01-.386-.202l-4.44-4.234 2.262-2.44 9.72 2.607L79.36 4.838l11.792 6.142 4.535 6.8c-1.48.97-4.063 2.65-5.242 3.317v.031z" fill="#CA151C"/></svg>